<svg id="OBJECTS" xmlns="http://www.w3.org/2000/svg" xmlns:xlink="http://www.w3.org/1999/xlink" viewBox="0 0 100.6 100.7"><defs><style>.cls-1{fill:url(#radial-gradient);}.cls-2{fill:#dd1d14;}.cls-3{font-size:62.1px;fill:#db532a;font-family:MyriadPro-Regular, Myriad Pro;}</style><radialGradient id="radial-gradient" cx="57.4" cy="62.95" r="50.33" gradientTransform="matrix(1, 0, 0, -1, 0, 120)" gradientUnits="userSpaceOnUse"><stop offset="0.08" stop-color="#ff0100"/><stop offset="0.09" stop-color="#f40"/><stop offset="0.31" stop-color="#ff4f00"/><stop offset="0.48" stop-color="#ff5300"/><stop offset="0.59" stop-color="#ff8300"/><stop offset="0.61" stop-color="#ff4700"/><stop offset="0.81" stop-color="#ff8b00"/></radialGradient></defs><title>b</title><path class="cls-1" d="M57.4,107.4A50.35,50.35,0,1,1,107.7,57,50.34,50.34,0,0,1,57.4,107.4Zm0-95.7A45.3,45.3,0,1,0,102.7,57,45.32,45.32,0,0,0,57.4,11.7Z" transform="translate(-7.1 -6.7)"/><path class="cls-2" d="M57.4,107.4A50.35,50.35,0,1,1,107.7,57,50.34,50.34,0,0,1,57.4,107.4Zm0-95.7A45.3,45.3,0,1,0,102.7,57,45.32,45.32,0,0,0,57.4,11.7Z" transform="translate(-7.1 -6.7)"/><text class="cls-3" transform="translate(34.67 68.78)">B</text></svg>