<?xml version="1.0" encoding="utf-8"?>
<!-- Generator: Adobe Illustrator 22.0.0, SVG Export Plug-In . SVG Version: 6.00 Build 0)  -->
<svg version="1.1" id="OBJECTS" xmlns="http://www.w3.org/2000/svg" xmlns:xlink="http://www.w3.org/1999/xlink" x="0px" y="0px"
	 viewBox="0 0 117.8 118.7" style="enable-background:new 0 0 117.8 118.7;" xml:space="preserve">
<style type="text/css">
	.st0{fill:url(#SVGID_1_);}
	.st1{fill:url(#SVGID_2_);}
	.st2{fill:url(#SVGID_3_);}
	.st3{fill:url(#SVGID_4_);}
	.st4{fill:url(#SVGID_5_);}
	.st5{fill:url(#SVGID_6_);}
	.st6{fill:url(#SVGID_7_);}
	.st7{fill:url(#SVGID_8_);}
	.st8{fill:url(#SVGID_9_);}
	.st9{fill:url(#SVGID_10_);}
	.st10{fill:url(#SVGID_11_);}
	.st11{fill:url(#SVGID_12_);}
	.st12{fill:url(#SVGID_13_);}
	.st13{fill:url(#SVGID_14_);}
	.st14{fill:url(#SVGID_15_);}
	.st15{fill:#DD1D14;}
</style>
<g>
	<g>
		<g>
			<radialGradient id="SVGID_1_" cx="60.7442" cy="65.5401" r="18.0471" gradientUnits="userSpaceOnUse">
				<stop  offset="7.845374e-02" style="stop-color:#FF0100"/>
				<stop  offset="9.100402e-02" style="stop-color:#FF4400"/>
				<stop  offset="0.3069" style="stop-color:#FF4F00"/>
				<stop  offset="0.4794" style="stop-color:#FF5300"/>
				<stop  offset="0.5883" style="stop-color:#FF8300"/>
				<stop  offset="0.6141" style="stop-color:#FF4700"/>
				<stop  offset="0.8108" style="stop-color:#FF8B00"/>
			</radialGradient>
			<path class="st0" d="M67.9,43.1c0-1.1-0.9-2-2-2c-1.1,0-2,0.9-2,2c0,0.8,0.5,1.5,1.2,1.8v43.5H53.5V90h13.2V44.9
				C67.4,44.6,67.9,43.9,67.9,43.1z"/>
			<radialGradient id="SVGID_2_" cx="60.7442" cy="65.5401" r="18.0471" gradientUnits="userSpaceOnUse">
				<stop  offset="7.845374e-02" style="stop-color:#FF0100"/>
				<stop  offset="9.100402e-02" style="stop-color:#FF4400"/>
				<stop  offset="0.3069" style="stop-color:#FF4F00"/>
				<stop  offset="0.4794" style="stop-color:#FF5300"/>
				<stop  offset="0.5883" style="stop-color:#FF8300"/>
				<stop  offset="0.6141" style="stop-color:#FF4700"/>
				<stop  offset="0.8108" style="stop-color:#FF8B00"/>
			</radialGradient>
			<path class="st1" d="M67.9,43.1c0-1.1-0.9-2-2-2c-1.1,0-2,0.9-2,2c0,0.8,0.5,1.5,1.2,1.8v43.5H53.5V90h13.2V44.9
				C67.4,44.6,67.9,43.9,67.9,43.1z"/>
			<radialGradient id="SVGID_3_" cx="49.3995" cy="59.4831" r="26.3359" gradientUnits="userSpaceOnUse">
				<stop  offset="7.845374e-02" style="stop-color:#FF0100"/>
				<stop  offset="9.100402e-02" style="stop-color:#FF4400"/>
				<stop  offset="0.3069" style="stop-color:#FF4F00"/>
				<stop  offset="0.4794" style="stop-color:#FF5300"/>
				<stop  offset="0.5883" style="stop-color:#FF8300"/>
				<stop  offset="0.6141" style="stop-color:#FF4700"/>
				<stop  offset="0.8108" style="stop-color:#FF8B00"/>
			</radialGradient>
			<path class="st2" d="M52.1,91.2V41.4H35.7V30c0.7-0.3,1.2-1,1.2-1.8c0-1.1-0.9-2-2-2c-1.1,0-2,0.9-2,2c0,0.8,0.5,1.5,1.2,1.8v13
				h16.4v49.9h15.4v-1.6H52.1z"/>
			<radialGradient id="SVGID_4_" cx="49.3995" cy="59.4831" r="26.3359" gradientUnits="userSpaceOnUse">
				<stop  offset="7.845374e-02" style="stop-color:#FF0100"/>
				<stop  offset="9.100402e-02" style="stop-color:#FF4400"/>
				<stop  offset="0.3069" style="stop-color:#FF4F00"/>
				<stop  offset="0.4794" style="stop-color:#FF5300"/>
				<stop  offset="0.5883" style="stop-color:#FF8300"/>
				<stop  offset="0.6141" style="stop-color:#FF4700"/>
				<stop  offset="0.8108" style="stop-color:#FF8B00"/>
			</radialGradient>
			<path class="st3" d="M52.1,91.2V41.4H35.7V30c0.7-0.3,1.2-1,1.2-1.8c0-1.1-0.9-2-2-2c-1.1,0-2,0.9-2,2c0,0.8,0.5,1.5,1.2,1.8v13
				h16.4v49.9h15.4v-1.6H52.1z"/>
			<radialGradient id="SVGID_5_" cx="73.7766" cy="34.5541" r="8.94" gradientUnits="userSpaceOnUse">
				<stop  offset="7.845374e-02" style="stop-color:#FF0100"/>
				<stop  offset="9.100402e-02" style="stop-color:#FF4400"/>
				<stop  offset="0.3069" style="stop-color:#FF4F00"/>
				<stop  offset="0.4794" style="stop-color:#FF5300"/>
				<stop  offset="0.5883" style="stop-color:#FF8300"/>
				<stop  offset="0.6141" style="stop-color:#FF4700"/>
				<stop  offset="0.8108" style="stop-color:#FF8B00"/>
			</radialGradient>
			<path class="st4" d="M68.2,27.3c-0.3-0.7-1-1.2-1.8-1.2c-1.1,0-2,0.9-2,2c0,1.1,0.9,2,2,2c0.8,0,1.5-0.5,1.8-1.2h13.3v12.4H70.1
				V43h13.1V27.3H68.2z"/>
			<radialGradient id="SVGID_6_" cx="73.7766" cy="34.5541" r="8.94" gradientUnits="userSpaceOnUse">
				<stop  offset="7.845374e-02" style="stop-color:#FF0100"/>
				<stop  offset="9.100402e-02" style="stop-color:#FF4400"/>
				<stop  offset="0.3069" style="stop-color:#FF4F00"/>
				<stop  offset="0.4794" style="stop-color:#FF5300"/>
				<stop  offset="0.5883" style="stop-color:#FF8300"/>
				<stop  offset="0.6141" style="stop-color:#FF4700"/>
				<stop  offset="0.8108" style="stop-color:#FF8B00"/>
			</radialGradient>
			<path class="st5" d="M68.2,27.3c-0.3-0.7-1-1.2-1.8-1.2c-1.1,0-2,0.9-2,2c0,1.1,0.9,2,2,2c0.8,0,1.5-0.5,1.8-1.2h13.3v12.4H70.1
				V43h13.1V27.3H68.2z"/>
			<radialGradient id="SVGID_7_" cx="56.137" cy="31.0822" r="12.5451" gradientUnits="userSpaceOnUse">
				<stop  offset="7.845374e-02" style="stop-color:#FF0100"/>
				<stop  offset="9.100402e-02" style="stop-color:#FF4400"/>
				<stop  offset="0.3069" style="stop-color:#FF4F00"/>
				<stop  offset="0.4794" style="stop-color:#FF5300"/>
				<stop  offset="0.5883" style="stop-color:#FF8300"/>
				<stop  offset="0.6141" style="stop-color:#FF4700"/>
				<stop  offset="0.8108" style="stop-color:#FF8B00"/>
			</radialGradient>
			<path class="st6" d="M71.5,30.8c-0.8,0-1.5,0.5-1.8,1.2H65l-4.7-4.7H38.8v1.6h20.8l4.7,4.7h5.3c0.3,0.7,1,1.2,1.8,1.2
				c1.1,0,2-0.9,2-2C73.5,31.7,72.6,30.8,71.5,30.8z"/>
			<radialGradient id="SVGID_8_" cx="56.137" cy="31.0822" r="12.5451" gradientUnits="userSpaceOnUse">
				<stop  offset="7.845374e-02" style="stop-color:#FF0100"/>
				<stop  offset="9.100402e-02" style="stop-color:#FF4400"/>
				<stop  offset="0.3069" style="stop-color:#FF4F00"/>
				<stop  offset="0.4794" style="stop-color:#FF5300"/>
				<stop  offset="0.5883" style="stop-color:#FF8300"/>
				<stop  offset="0.6141" style="stop-color:#FF4700"/>
				<stop  offset="0.8108" style="stop-color:#FF8B00"/>
			</radialGradient>
			<path class="st7" d="M71.5,30.8c-0.8,0-1.5,0.5-1.8,1.2H65l-4.7-4.7H38.8v1.6h20.8l4.7,4.7h5.3c0.3,0.7,1,1.2,1.8,1.2
				c1.1,0,2-0.9,2-2C73.5,31.7,72.6,30.8,71.5,30.8z"/>
			<radialGradient id="SVGID_9_" cx="50.647" cy="61.4549" r="20.3489" gradientUnits="userSpaceOnUse">
				<stop  offset="7.845374e-02" style="stop-color:#FF0100"/>
				<stop  offset="9.100402e-02" style="stop-color:#FF4400"/>
				<stop  offset="0.3069" style="stop-color:#FF4F00"/>
				<stop  offset="0.4794" style="stop-color:#FF5300"/>
				<stop  offset="0.5883" style="stop-color:#FF8300"/>
				<stop  offset="0.6141" style="stop-color:#FF4700"/>
				<stop  offset="0.8108" style="stop-color:#FF8B00"/>
			</radialGradient>
			<path class="st8" d="M59.1,45.5v-8.4H41.2c-0.3-0.7-1-1.2-1.8-1.2c-1.1,0-2,0.9-2,2c0,1.1,0.9,2,2,2c0.8,0,1.5-0.5,1.8-1.2h16.2
				v7.4l4.8,5v34.2h-8.7V87h10.4V50.5L59.1,45.5z"/>
			<radialGradient id="SVGID_10_" cx="50.647" cy="61.4549" r="20.3489" gradientUnits="userSpaceOnUse">
				<stop  offset="7.845374e-02" style="stop-color:#FF0100"/>
				<stop  offset="9.100402e-02" style="stop-color:#FF4400"/>
				<stop  offset="0.3069" style="stop-color:#FF4F00"/>
				<stop  offset="0.4794" style="stop-color:#FF5300"/>
				<stop  offset="0.5883" style="stop-color:#FF8300"/>
				<stop  offset="0.6141" style="stop-color:#FF4700"/>
				<stop  offset="0.8108" style="stop-color:#FF8B00"/>
			</radialGradient>
			<path class="st9" d="M59.1,45.5v-8.4H41.2c-0.3-0.7-1-1.2-1.8-1.2c-1.1,0-2,0.9-2,2c0,1.1,0.9,2,2,2c0.8,0,1.5-0.5,1.8-1.2h16.2
				v7.4l4.8,5v34.2h-8.7V87h10.4V50.5L59.1,45.5z"/>
			<radialGradient id="SVGID_11_" cx="59.6069" cy="35.3484" r="14.7157" gradientUnits="userSpaceOnUse">
				<stop  offset="7.845374e-02" style="stop-color:#FF0100"/>
				<stop  offset="9.100402e-02" style="stop-color:#FF4400"/>
				<stop  offset="0.3069" style="stop-color:#FF4F00"/>
				<stop  offset="0.4794" style="stop-color:#FF5300"/>
				<stop  offset="0.5883" style="stop-color:#FF8300"/>
				<stop  offset="0.6141" style="stop-color:#FF4700"/>
				<stop  offset="0.8108" style="stop-color:#FF8B00"/>
			</radialGradient>
			<path class="st10" d="M80.2,34.3c0-1.1-0.9-2-2-2c-1.1,0-2,0.9-2,2c0,0.8,0.5,1.5,1.2,1.8V37H64l-5-5H39.1v1.6h19.2l5,5H79v-2.6
				C79.7,35.8,80.2,35.1,80.2,34.3z"/>
			<radialGradient id="SVGID_12_" cx="59.6069" cy="35.3484" r="14.7157" gradientUnits="userSpaceOnUse">
				<stop  offset="7.845374e-02" style="stop-color:#FF0100"/>
				<stop  offset="9.100402e-02" style="stop-color:#FF4400"/>
				<stop  offset="0.3069" style="stop-color:#FF4F00"/>
				<stop  offset="0.4794" style="stop-color:#FF5300"/>
				<stop  offset="0.5883" style="stop-color:#FF8300"/>
				<stop  offset="0.6141" style="stop-color:#FF4700"/>
				<stop  offset="0.8108" style="stop-color:#FF8B00"/>
			</radialGradient>
			<path class="st11" d="M80.2,34.3c0-1.1-0.9-2-2-2c-1.1,0-2,0.9-2,2c0,0.8,0.5,1.5,1.2,1.8V37H64l-5-5H39.1v1.6h19.2l5,5H79v-2.6
				C79.7,35.8,80.2,35.1,80.2,34.3z"/>
			<radialGradient id="SVGID_13_" cx="57.2729" cy="67.866" r="11.2269" gradientUnits="userSpaceOnUse">
				<stop  offset="7.845374e-02" style="stop-color:#FF0100"/>
				<stop  offset="9.100402e-02" style="stop-color:#FF4400"/>
				<stop  offset="0.3069" style="stop-color:#FF4F00"/>
				<stop  offset="0.4794" style="stop-color:#FF5300"/>
				<stop  offset="0.5883" style="stop-color:#FF8300"/>
				<stop  offset="0.6141" style="stop-color:#FF4700"/>
				<stop  offset="0.8108" style="stop-color:#FF8B00"/>
			</radialGradient>
			<path class="st12" d="M59.3,54.1c0-1.1-0.9-2-2-2c-1.1,0-2,0.9-2,2c0,0.8,0.5,1.5,1.2,1.8v27.7h1.6V56
				C58.8,55.6,59.3,54.9,59.3,54.1z"/>
			<radialGradient id="SVGID_14_" cx="57.2729" cy="67.866" r="11.2269" gradientUnits="userSpaceOnUse">
				<stop  offset="7.845374e-02" style="stop-color:#FF0100"/>
				<stop  offset="9.100402e-02" style="stop-color:#FF4400"/>
				<stop  offset="0.3069" style="stop-color:#FF4F00"/>
				<stop  offset="0.4794" style="stop-color:#FF5300"/>
				<stop  offset="0.5883" style="stop-color:#FF8300"/>
				<stop  offset="0.6141" style="stop-color:#FF4700"/>
				<stop  offset="0.8108" style="stop-color:#FF8B00"/>
			</radialGradient>
			<path class="st13" d="M59.3,54.1c0-1.1-0.9-2-2-2c-1.1,0-2,0.9-2,2c0,0.8,0.5,1.5,1.2,1.8v27.7h1.6V56
				C58.8,55.6,59.3,54.9,59.3,54.1z"/>
		</g>
		<g>
			<radialGradient id="SVGID_15_" cx="57.4044" cy="57.0903" r="50.3484" gradientUnits="userSpaceOnUse">
				<stop  offset="7.845374e-02" style="stop-color:#FF0100"/>
				<stop  offset="9.100402e-02" style="stop-color:#FF4400"/>
				<stop  offset="0.3069" style="stop-color:#FF4F00"/>
				<stop  offset="0.4794" style="stop-color:#FF5300"/>
				<stop  offset="0.5883" style="stop-color:#FF8300"/>
				<stop  offset="0.6141" style="stop-color:#FF4700"/>
				<stop  offset="0.8108" style="stop-color:#FF8B00"/>
			</radialGradient>
			<path class="st14" d="M57.4,107.4c-27.8,0-50.3-22.6-50.3-50.3S29.6,6.7,57.4,6.7c27.8,0,50.3,22.6,50.3,50.3
				S85.2,107.4,57.4,107.4z M57.4,11.7c-25,0-45.3,20.3-45.3,45.3s20.3,45.3,45.3,45.3s45.3-20.3,45.3-45.3S82.4,11.7,57.4,11.7z"/>
		</g>
		<g>
			<path class="st15" d="M57.4,107.4c-27.8,0-50.3-22.6-50.3-50.3S29.6,6.7,57.4,6.7c27.8,0,50.3,22.6,50.3,50.3
				S85.2,107.4,57.4,107.4z M57.4,11.7c-25,0-45.3,20.3-45.3,45.3s20.3,45.3,45.3,45.3s45.3-20.3,45.3-45.3S82.4,11.7,57.4,11.7z"/>
		</g>
	</g>
</g>
</svg>
