<?xml version="1.0"?>
<svg xmlns="http://www.w3.org/2000/svg" xmlns:xlink="http://www.w3.org/1999/xlink" version="1.1" id="Capa_1" x="0px" y="0px" viewBox="0 0 512 512" style="enable-background:new 0 0 512 512;" xml:space="preserve" width="512px" height="512px" class=""><g><g>
	<path d="M95.693,145.249l-19.976,21.232c-2.051,2.179-2.609,5.368-1.423,8.114c1.188,2.747,3.893,4.525,6.885,4.525h31.764   c-0.093,0.965-0.144,1.941-0.144,2.93c0,8.13,3.165,15.765,8.9,21.488c1.096,1.099,2.263,2.101,3.488,3.007l-39.313,39.312   c-2.115,2.115-2.771,5.286-1.669,8.067c1.103,2.781,3.753,4.641,6.743,4.733l29.14,0.894l0.895,29.14   c0.092,2.99,1.951,5.64,4.732,6.742c0.896,0.355,1.833,0.528,2.762,0.528c1.953,0,3.872-0.763,5.306-2.197l25.1-25.1   c2.929-2.929,2.929-7.678,0-10.606c-2.93-2.929-7.678-2.929-10.607,0l-12.831,12.832l-0.579-18.849   c-0.121-3.962-3.305-7.145-7.267-7.267l-18.849-0.578l31.861-31.86c0.856,0.072,1.719,0.115,2.588,0.115h10.243   c10.782,46.656,52.672,81.54,102.557,81.54c10.179,0,20.262-1.456,29.974-4.33c9.389-2.786,18.347-6.88,26.624-12.17   c3.491-2.23,4.512-6.868,2.282-10.358c-2.231-3.49-6.871-4.511-10.358-2.281c-7.096,4.534-14.771,8.043-22.81,10.428   c-8.324,2.463-16.975,3.712-25.712,3.712c-49.764,0-90.25-40.486-90.25-90.25v-35.995h180.5v35.995   c0,21.146-7.465,41.707-21.02,57.895c-2.659,3.176-2.241,7.906,0.935,10.565c1.404,1.176,3.112,1.75,4.812,1.75   c2.143,0,4.271-0.914,5.754-2.685c10.665-12.736,18.082-27.796,21.791-43.815H368.8c8.13,0,15.766-3.165,21.487-8.901   c5.748-5.734,8.913-13.37,8.913-21.5c0-16.763-13.638-30.4-30.4-30.4h-3.707c6.505-2.432,11.157-8.692,11.157-16.034v-33.489   c0-2.132-0.409-4.166-1.124-6.05c22.788-8.653,39.033-30.707,39.033-56.492V7.5c0-4.142-3.357-7.5-7.5-7.5H231.287   c-9.05,0-17.938,1.492-26.417,4.435c-3.913,1.358-5.984,5.631-4.627,9.544c1.358,3.913,5.627,5.985,9.545,4.626   C216.682,16.213,223.915,15,231.287,15h167.872v24.584c0,25.041-20.372,45.413-45.413,45.413H165.754v-4.464   c0-18.165,7.262-35.055,20.447-47.559c3.005-2.85,3.131-7.597,0.281-10.603c-2.851-3.006-7.597-3.131-10.604-0.281   c-16.202,15.365-25.125,36.121-25.125,58.443v4.61c-8.444,1.052-15.004,8.26-15.004,16.984v33.489   c0,7.343,4.653,13.603,11.157,16.034H143.2c-10.062,0-18.993,4.917-24.529,12.47H98.534l12.918-13.731   c2.717-2.887,2.718-7.39,0.001-10.277L98.529,126.37H113.8c4.143,0,7.5-3.358,7.5-7.5s-3.357-7.5-7.5-7.5H81.18   c-2.991,0-5.697,1.778-6.885,4.524c-1.187,2.746-0.628,5.935,1.422,8.114L95.693,145.249z M384.2,182.05   c0,4.117-1.601,7.981-4.52,10.893c-2.899,2.907-6.764,4.507-10.881,4.507h-7.922c0.241-2.889,0.372-5.794,0.372-8.71v-22.09h7.55   C377.292,166.65,384.2,173.558,384.2,182.05z M150.75,102.127c0-1.174,0.955-2.13,2.13-2.13h5.374h195.492h5.374   c1.175,0,2.13,0.956,2.13,2.13v33.489c0,1.174-0.955,2.13-2.13,2.13H152.88c-1.175,0-2.13-0.956-2.13-2.13V102.127z M143.2,166.65   h7.55v22.09c0,2.933,0.126,5.837,0.363,8.71H143.2c-4.117,0-7.981-1.601-10.894-4.519c-2.906-2.9-4.507-6.765-4.507-10.881   C127.8,173.558,134.708,166.65,143.2,166.65z" data-original="#000000" class="" data-old_color="#000000" fill="#FFFFFF"/>
	<path d="M397.244,361.714c-18.181-19.289-41.851-34.186-70.347-44.295c-11.7-5.213-24.193-7.859-37.137-7.859h-67.52   c-12.932,0-25.414,2.642-37.098,7.842c-30.694,10.885-71.79,33.369-94.519,78.823c-1.853,3.705-0.352,8.21,3.354,10.063   c3.706,1.853,8.211,0.351,10.063-3.354c9.713-19.423,23.249-34.232,37.796-45.501c-0.159,0.292-0.307,0.59-0.463,0.884   c-0.499,0.943-0.981,1.895-1.447,2.856c-0.211,0.435-0.427,0.866-0.632,1.304c-0.208,0.447-0.404,0.899-0.604,1.349   c-0.215,0.482-0.432,0.963-0.639,1.449c-0.19,0.445-0.37,0.894-0.553,1.343c-0.204,0.501-0.407,1.002-0.602,1.507   c-0.171,0.442-0.337,0.886-0.501,1.331c-0.193,0.524-0.382,1.05-0.566,1.578c-0.151,0.433-0.3,0.867-0.445,1.303   c-0.185,0.558-0.362,1.12-0.536,1.682c-0.128,0.412-0.258,0.823-0.38,1.237c-0.189,0.641-0.366,1.287-0.541,1.933   c-0.092,0.34-0.191,0.678-0.279,1.02c-0.253,0.977-0.49,1.959-0.711,2.946c-0.056,0.252-0.104,0.507-0.158,0.76   c-0.162,0.754-0.319,1.51-0.462,2.27c-0.073,0.386-0.136,0.774-0.203,1.161c-0.111,0.632-0.219,1.264-0.316,1.9   c-0.065,0.424-0.124,0.85-0.183,1.276c-0.084,0.607-0.163,1.215-0.235,1.825c-0.052,0.435-0.1,0.871-0.146,1.308   c-0.063,0.614-0.119,1.229-0.17,1.845c-0.036,0.43-0.073,0.86-0.102,1.291c-0.045,0.656-0.078,1.314-0.109,1.972   c-0.019,0.39-0.042,0.779-0.056,1.17c-0.031,0.913-0.047,1.829-0.051,2.747c0,0.127-0.007,0.252-0.007,0.379v42.05   c0,4.142,3.357,7.5,7.5,7.5c0,0,0,0,0,0h0h30.778V497H138.24h-26.364c-12.79,0-23.195-10.405-23.195-23.195   c0-15.688,1.796-30.508,5.338-44.048c1.048-4.007-1.351-8.105-5.357-9.154c-4.013-1.051-8.106,1.351-9.154,5.358   c-3.866,14.779-5.826,30.876-5.826,47.844c0,21.061,17.135,38.195,38.195,38.195h26.364h40.313h159.822h35.385h26.366   c21.061,0,38.194-17.134,38.194-38.195C438.32,428.343,424.5,390.63,397.244,361.714z M313.403,328.3l-32.252,64.14l-6.087-43.623   c8.916-5.322,15.11-14.079,17.19-24.193c0.353,0.011,0.709,0.011,1.061,0.027c0.462,0.021,0.922,0.052,1.382,0.081   c0.733,0.046,1.464,0.104,2.193,0.171c0.521,0.048,1.042,0.094,1.562,0.153c0.68,0.076,1.355,0.172,2.031,0.266   c1.082,0.152,2.16,0.326,3.233,0.525c0.401,0.074,0.802,0.143,1.201,0.223c0.769,0.155,1.535,0.326,2.299,0.505   c0.287,0.067,0.573,0.137,0.858,0.207C309.867,327.225,311.644,327.726,313.403,328.3z M203.941,326.778   c0.276-0.068,0.552-0.135,0.828-0.199c0.771-0.181,1.543-0.353,2.32-0.51c0.388-0.078,0.778-0.145,1.167-0.217   c1.087-0.201,2.179-0.378,3.275-0.532c0.67-0.094,1.34-0.188,2.014-0.264c0.52-0.059,1.043-0.105,1.565-0.153   c0.729-0.067,1.458-0.125,2.191-0.171c0.461-0.029,0.921-0.06,1.383-0.081c0.352-0.016,0.708-0.016,1.061-0.027   c2.081,10.114,8.274,18.871,17.19,24.193l-6.087,43.623l-32.252-64.14C200.361,327.724,202.145,327.221,203.941,326.778z    M242.704,416.017l9.833-70.47c0.479-3.424-1.446-6.731-4.659-8.007c-6.016-2.389-10.516-7.153-12.608-12.977h41.461   c-2.093,5.824-6.593,10.588-12.608,12.977c-3.213,1.276-5.138,4.583-4.659,8.007l9.833,70.47L256,442.458L242.704,416.017z    M145.741,401.059c0-4.719,0.436-9.371,1.277-13.908c0-0.003,0.001-0.006,0.002-0.009c4.116-22.195,17.932-41.635,37.827-52.797   L249.3,462.522c1.273,2.533,3.865,4.131,6.7,4.131s5.427-1.598,6.7-4.131l64.454-128.178c15.011,8.422,26.564,21.552,33.097,37.029   c0.003,0.007,0.007,0.014,0.01,0.022c0.288,0.683,0.56,1.374,0.828,2.066c0.063,0.163,0.133,0.324,0.195,0.488   c0.205,0.54,0.394,1.086,0.587,1.631c0.113,0.32,0.234,0.636,0.344,0.958c0.131,0.386,0.248,0.778,0.373,1.167   c0.156,0.485,0.318,0.968,0.464,1.456c0.067,0.224,0.125,0.452,0.19,0.677c0.19,0.657,0.38,1.313,0.553,1.976   c0.016,0.061,0.029,0.123,0.045,0.185c1.585,6.144,2.421,12.54,2.421,19.063v34.55h-27.885c-0.269,0-0.532,0.023-0.797,0.041   l15.41-42.345c0-0.001,0.001-0.001,0.001-0.002c1.001-2.754,1.379-5.584,1.217-8.34c-0.473-8.081-5.637-15.514-13.714-18.454   c-0.074-0.027-0.15-0.043-0.224-0.069c-0.554-0.194-1.111-0.367-1.672-0.514c-0.229-0.06-0.458-0.102-0.687-0.153   c-0.43-0.097-0.86-0.188-1.292-0.258c-0.214-0.034-0.428-0.058-0.642-0.085c-0.46-0.06-0.92-0.106-1.383-0.134   c-0.183-0.011-0.365-0.018-0.548-0.024c-0.235-0.008-0.468-0.031-0.703-0.031c-0.298,0-0.592,0.022-0.887,0.035   c-0.087,0.004-0.174,0.005-0.26,0.01c-1.964,0.109-3.873,0.496-5.685,1.128c-0.108,0.038-0.215,0.078-0.322,0.117   c-0.477,0.175-0.946,0.367-1.408,0.576c-0.139,0.063-0.278,0.122-0.416,0.188c-0.465,0.223-0.921,0.463-1.368,0.719   c-0.121,0.069-0.243,0.132-0.362,0.203c-0.464,0.278-0.917,0.576-1.359,0.889c-0.256,0.18-0.5,0.375-0.748,0.567   c-0.213,0.166-0.424,0.332-0.631,0.505c-0.269,0.225-0.531,0.457-0.789,0.696c-0.167,0.155-0.327,0.316-0.489,0.476   c-0.265,0.263-0.531,0.525-0.783,0.803c-0.068,0.075-0.13,0.157-0.197,0.234c-0.487,0.554-0.943,1.137-1.373,1.747   c-0.174,0.246-0.348,0.492-0.512,0.747c-0.156,0.243-0.304,0.491-0.45,0.742c-0.195,0.332-0.379,0.671-0.556,1.015   c-0.102,0.2-0.207,0.396-0.303,0.6c-0.273,0.575-0.528,1.161-0.75,1.766l-22.93,62.981c-10.555,5.463-17.442,16.521-17.442,28.585   v6.47c0,7.536,2.611,14.47,6.966,19.96h-48.57c4.356-5.49,6.967-12.424,6.967-19.96v-6.469c0-17.744-14.437-32.18-32.181-32.18   h-22.123c-1.375-1.695-3.473-2.781-5.826-2.781h-32.812V401.059z M320.312,404.669l11.106,4.042l-10.8,29.679h-12.583   L320.312,404.669z M338.89,388.174l-2.344,6.441l-11.099-4.039l2.345-6.441c0.125-0.345,0.287-0.67,0.469-0.98   c0.036-0.061,0.075-0.118,0.113-0.177c0.14-0.219,0.299-0.423,0.466-0.621c0.118-0.138,0.242-0.271,0.372-0.397   c0.12-0.118,0.246-0.23,0.376-0.337c0.173-0.142,0.354-0.275,0.542-0.397c0.141-0.091,0.285-0.177,0.435-0.257   c1.416-0.76,3.139-0.962,4.8-0.36c1.719,0.625,2.972,1.973,3.541,3.577C339.348,385.433,339.377,386.835,338.89,388.174z    M299.398,454.504c1.95-0.739,4.004-1.114,6.103-1.114h20.37h0.077v40.83H305.5c-9.473,0-17.18-7.707-17.18-17.18v-6.47   C288.32,463.472,292.773,457.015,299.398,454.504z M206.502,453.391c9.474,0,17.181,7.707,17.181,17.18v6.469   c0,9.473-7.707,17.18-17.181,17.18h-20.449v-40.829H206.502z M400.126,497H373.76h-30.779v-46.39h30.78c4.143,0,7.5-3.358,7.5-7.5   v-42.051c0-1.07-0.023-2.136-0.06-3.2c-0.01-0.28-0.028-0.557-0.04-0.836c-0.034-0.779-0.074-1.556-0.129-2.331   c-0.024-0.349-0.055-0.697-0.083-1.044c-0.058-0.708-0.121-1.415-0.195-2.119c-0.038-0.363-0.079-0.724-0.122-1.086   c-0.082-0.698-0.172-1.395-0.27-2.089c-0.049-0.349-0.098-0.697-0.15-1.045c-0.111-0.731-0.234-1.458-0.363-2.184   c-0.053-0.301-0.103-0.603-0.159-0.904c-0.163-0.868-0.34-1.732-0.528-2.592c-0.033-0.151-0.061-0.304-0.095-0.455   c-0.232-1.041-0.482-2.077-0.75-3.106c-0.018-0.068-0.038-0.135-0.056-0.203c-0.244-0.928-0.502-1.85-0.774-2.768   c-0.086-0.288-0.178-0.574-0.266-0.861c-0.214-0.694-0.432-1.387-0.662-2.075c-0.116-0.349-0.238-0.696-0.358-1.043   c-0.216-0.623-0.438-1.243-0.667-1.861c-0.138-0.371-0.278-0.741-0.42-1.11c-0.228-0.59-0.463-1.176-0.703-1.76   c-0.155-0.378-0.309-0.756-0.469-1.132c-0.244-0.572-0.497-1.139-0.753-1.706c-0.169-0.375-0.334-0.752-0.508-1.125   c-0.273-0.585-0.558-1.164-0.844-1.742c-0.274-0.556-0.552-1.109-0.836-1.659c-0.321-0.619-0.642-1.239-0.977-1.851   c29.498,22.712,53.295,58.919,53.295,116.632C423.32,486.595,412.915,497,400.126,497z" data-original="#000000" class="" data-old_color="#000000" fill="#FFFFFF"/>
	<path d="M256,162.527c-4.143,0-7.5,3.358-7.5,7.5v41.64c0,4.142,3.357,7.5,7.5,7.5h15.667c4.143,0,7.5-3.358,7.5-7.5   s-3.357-7.5-7.5-7.5H263.5v-34.14C263.5,165.885,260.143,162.527,256,162.527z" data-original="#000000" class="" data-old_color="#000000" fill="#FFFFFF"/>
</g></g> </svg>
